<svg class="main-logo" width="120" height="51" viewBox="0 0 120 51" fill="none" xmlns="http://www.w3.org/2000/svg">
    <path class="primary" d="M109.52 5.15581C109.52 5.05868 108.778 4.97504 108.619 4.93457C108.605 4.93457 108.592 4.92917 108.581 4.92108C106.841 4.24928 59.6254 0.0970459 59.6254 0.0970459C59.6254 0.0970459 12.4103 4.24928 10.6701 4.92108C10.6539 4.92648 10.6377 4.93187 10.6188 4.93457C10.4596 4.97504 9.70689 5.05868 9.71229 5.15581C2.62462 7.16042 -1.49793 14.5314 0.506687 21.6217C1.76666 26.0815 5.25248 29.5674 9.71229 30.8273C9.71229 30.9245 10.4596 31.0162 10.6188 31.0405C10.635 31.0486 10.6512 31.054 10.6701 31.0594C12.4103 31.7339 59.6254 35.8699 59.6254 35.8699C59.6254 35.8699 106.841 31.7339 108.594 31.0594C108.594 31.0594 108.619 31.0594 108.632 31.0405C108.791 31.0162 109.539 30.9245 109.533 30.8273C116.621 28.8335 120.754 21.4706 118.76 14.383C117.503 9.90969 114.006 6.41308 109.533 5.15581" fill="#DE181F"/>
    <path class="primary-revert" d="M15.4863 13.3497H10.5679V22.8116H15.2894C15.2894 22.8116 20.6854 22.8116 20.6854 17.9822C20.6854 17.9822 20.6854 13.3497 15.5079 13.3497M18.2059 18.047C18.2059 21.2144 14.6985 21.2441 14.6985 21.2441H12.8099V14.8525H14.8388C18.3462 14.8525 18.1978 18.047 18.1978 18.047" fill="white"/>
    <path class="primary-revert" d="M29.8987 22.8121H32.3053L29.7233 14.8799C29.2026 13.3502 27.5217 13.3502 27.5217 13.3502C27.0739 13.2962 26.6206 13.2962 26.1727 13.3502C26.1727 13.3502 24.4919 13.3502 23.9712 14.8799L21.3892 22.8121H23.7661L24.5755 20.2355H29.092L29.8879 22.8121M25.0558 18.7138L26.0702 15.4762C26.1835 15.0445 26.6287 14.7855 27.0604 14.9015C27.341 14.9771 27.5622 15.1956 27.635 15.4762L28.6333 18.7138H25.0558Z" fill="white"/>
    <path d="M42.982 16.8434H38.1472V18.3543H42.982V16.8434Z" fill="white" class="primary-revert"/>
    <path d="M36.3839 13.3097H34.0933V22.8121H36.3839V13.3097Z" fill="white" class="primary-revert"/>
    <path d="M47.1178 13.3097H44.8271V22.8121H47.1178V13.3097Z" fill="white" class="primary-revert"/>
    <path d="M72.0177 13.3097H69.7217V22.8121H72.0177V13.3097Z" fill="white" class="primary-revert"/>
    <path d="M89.0125 13.3497H86.7246V22.8116H89.0125V13.3497Z" fill="white" class="primary-revert"/>
    <path class="primary-revert" d="M65.6447 13.3097V16.8441H61.2281V13.3097H58.9375V22.8121H61.2281V18.3577H65.6447V22.8121H67.9408V13.3097H65.6447Z" fill="white"/>
    <path class="primary-revert" d="M85.1869 21.1982H80.5841C79.8799 21.2009 79.308 20.6344 79.3053 19.9302C79.3053 19.9275 79.3053 19.9275 79.3053 19.9248V13.3497H77.012V19.8249C77.012 22.8143 79.7262 22.8143 79.7262 22.8143H85.1869V21.1955" fill="white"/>
    <path class="primary-revert" d="M94.4832 14.9172H99.0887V13.3173H93.6199C93.6199 13.3173 90.9219 13.3173 90.9219 16.3013V22.8035H93.2152V19.0262H98.7866V17.5181H93.2071V16.1852C93.2098 15.4838 93.7791 14.9145 94.4805 14.9172H94.4832Z" fill="white"/>
    <path class="primary-revert" d="M104.065 21.1984C103.364 21.1984 102.794 20.6292 102.794 19.9277V19.925V18.6947H108.314V17.1784H102.794V16.1855C102.792 15.5083 103.337 14.958 104.014 14.9553C104.033 14.9553 104.052 14.9553 104.07 14.9553H108.673V13.3365H103.207C103.207 13.3365 100.509 13.296 100.509 16.2881V19.7955C100.509 22.7849 103.207 22.7849 103.207 22.7849H108.687L108.649 21.1661H104.062" fill="white"/>
    <path class="primary-revert" d="M57.3215 13.3384H54.0245C51.0918 13.3384 48.7148 15.4617 48.7148 18.0761C48.7148 20.6904 51.0918 22.8111 54.0245 22.8111H57.3377V21.2139H54.3429C52.6108 21.2139 51.2051 19.8082 51.2051 18.0761C51.2051 16.344 52.6108 14.9383 54.3429 14.9383H57.3107V13.3384" fill="white"/>
    <path class="logo-slogan" d="M27.9245 49.5458C27.08 49.8507 26.1923 50.0099 25.2939 50.0099C24.0124 50.0099 22.9331 49.6861 22.1049 48.8902C21.371 48.1779 20.915 47.0421 20.915 45.7119C20.915 43.1704 22.6714 41.3088 25.534 41.3088C26.2652 41.2926 26.9936 41.4275 27.6708 41.7054L27.401 42.6011C26.8075 42.3367 26.1627 42.2099 25.5124 42.2342C23.4377 42.2342 22.086 43.5239 22.086 45.6634C22.086 47.8029 23.3702 49.1006 25.3614 49.1006C25.8605 49.1276 26.3596 49.0521 26.8264 48.874V46.3325H25.1158V45.4475H27.9245V49.5458Z" fill="#5B5B5C"/>
    <path class="logo-slogan" d="M33.8686 48.4585C33.8632 48.9495 33.8929 49.4406 33.9603 49.9262H32.9593L32.8568 49.1519H32.8164C32.3793 49.7427 31.6832 50.0854 30.9493 50.0665C29.7056 50.0665 29.0742 49.1923 29.0742 48.3074C29.0742 46.8262 30.3908 46.0195 32.7543 46.0276V45.9035C32.7543 45.3963 32.6167 44.4735 31.3621 44.487C30.7955 44.4816 30.2371 44.6381 29.7568 44.9403L29.5032 44.1983C30.1156 43.8395 30.8171 43.6533 31.5267 43.6587C33.4153 43.6587 33.8686 44.9349 33.8686 46.1625V48.4531M32.7894 46.7938C31.5753 46.7695 30.1993 46.9881 30.1993 48.1725C30.148 48.7067 30.5419 49.1843 31.0788 49.2328C31.1301 49.2382 31.1841 49.2382 31.2353 49.2355C31.9071 49.2571 32.5142 48.8443 32.7408 48.213C32.7759 48.0997 32.7921 47.9782 32.7894 47.8595V46.7938ZM31.0276 42.0103C31.0492 42.1667 31.1139 42.3151 31.2164 42.4365C31.3298 42.5525 31.4862 42.6173 31.6481 42.6146C31.9881 42.6227 32.2714 42.3529 32.2795 42.0103H32.7219C32.7489 42.5633 32.3226 43.0328 31.7722 43.0598C31.7291 43.0625 31.6859 43.0625 31.6427 43.0571C31.1058 43.1056 30.631 42.7117 30.5797 42.1748C30.5743 42.1209 30.5743 42.0669 30.5797 42.0103H31.0276Z" fill="#5B5B5C"/>
    <path class="logo-slogan" d="M32.6293 40.1815L31.5528 41.4523H31.0105L31.7821 40.1815H32.6293Z" fill="#5B5B5C"/>
    <path class="logo-slogan" d="M35.6514 45.461C35.6514 44.8134 35.6514 44.3089 35.6001 43.8044H36.5849L36.6496 44.8027H36.6739C37.0894 44.0796 37.8664 43.6425 38.7001 43.6641C39.5446 43.6641 40.8585 44.1686 40.8585 46.2704V49.9262H39.7469V46.3972C39.7469 45.4124 39.38 44.5733 38.3305 44.5733C37.6425 44.5976 37.0435 45.0536 36.8385 45.7119C36.7845 45.8792 36.7602 46.0545 36.7629 46.2299V49.9262H35.6487V45.461" fill="#5B5B5C"/>
    <path class="logo-slogan" d="M45.353 40.9449H46.4673V44.7788H46.4916C46.9233 44.045 47.73 43.616 48.5798 43.6645C50.0988 43.6645 51.1591 44.9299 51.1591 46.7753C51.1591 48.9769 49.7697 50.0669 48.4018 50.0669C47.5519 50.1101 46.756 49.6622 46.3513 48.9149H46.3297L46.2622 49.9266H45.3018C45.3395 49.5084 45.353 48.8906 45.353 48.3429V40.9449ZM46.4673 47.4714C46.4592 47.6063 46.4727 47.7439 46.5051 47.8761C46.6939 48.6424 47.3819 49.182 48.1724 49.182C49.3488 49.182 50.0341 48.2323 50.0341 46.8293C50.0341 45.5855 49.4027 44.5333 48.2129 44.5333C47.4062 44.5522 46.7128 45.1161 46.532 45.9039C46.4889 46.055 46.4673 46.2115 46.4673 46.3706V47.4714Z" fill="#5B5B5C"/>
    <path class="logo-slogan" d="M55.0387 50.0669C53.3902 50.0669 52.1006 48.8501 52.1006 46.9156C52.1006 44.8652 53.4496 43.6646 55.1385 43.6646C56.8949 43.6646 58.0848 44.9407 58.0848 46.7996C58.0848 49.0768 56.5037 50.0669 55.0495 50.0669M55.0819 49.2305C56.1611 49.2305 56.9462 48.2323 56.9462 46.8401C56.9462 45.8041 56.4255 44.5009 55.1089 44.5009C53.7922 44.5009 53.2364 45.7123 53.2364 46.8752C53.2364 48.2242 53.9973 49.2305 55.0711 49.2305H55.0819Z" fill="#5B5B5C"/>
    <path class="logo-slogan" d="M56.7223 41.7946L55.6485 43.0572H55.1035L55.8751 41.7946H56.7223Z" fill="#5B5B5C"/>
    <path class="logo-slogan" d="M67.463 40.9474V48.3426C67.463 48.8822 67.463 49.5082 67.5143 49.9264H66.516L66.462 48.8633H66.4351C66.0358 49.6323 65.2291 50.099 64.3657 50.0666C62.8845 50.0666 61.7297 48.8094 61.7297 46.9531C61.7297 44.9054 62.9951 43.6643 64.4763 43.6643C65.426 43.6643 66.0573 44.1067 66.3244 44.587H66.3487V40.9474H67.463ZM66.3487 46.2948C66.3514 46.133 66.3352 45.9711 66.2975 45.8146C66.1302 45.0645 65.4638 44.5303 64.6948 44.533C63.5428 44.533 62.8575 45.5475 62.8575 46.8857C62.8575 48.143 63.478 49.1682 64.6679 49.1682C65.4503 49.1574 66.1221 48.6043 66.2867 47.8381C66.3244 47.6816 66.3433 47.5197 66.3379 47.3578L66.3487 46.2948Z" fill="#5B5B5C"/>
    <path class="logo-slogan" d="M73.6252 48.4592C73.6198 48.9502 73.6468 49.4412 73.7088 49.9269H72.7105L72.6107 49.1526H72.5756C72.1386 49.7461 71.4398 50.0861 70.7032 50.0672C69.4621 50.0672 68.8308 49.193 68.8308 48.3081C68.8308 46.8269 70.1447 46.0202 72.5109 46.0283V45.9042C72.5109 45.3996 72.3733 44.4742 71.1214 44.4877C70.5494 44.4796 69.9883 44.6361 69.5026 44.941L69.2328 44.199C69.848 43.8402 70.5467 43.654 71.259 43.6594C73.1476 43.6594 73.6036 44.9356 73.6036 46.1632V48.4538M72.5244 46.7945C71.3103 46.7702 69.9316 46.9888 69.9316 48.1732C69.8803 48.7074 70.2742 49.1849 70.8085 49.2335C70.8624 49.2389 70.9164 49.2389 70.9703 49.2362C71.6394 49.2551 72.2465 48.8423 72.4731 48.2136C72.5082 48.1003 72.5244 47.9789 72.5244 47.8602V46.7945Z" fill="#5B5B5C"/>
    <path class="logo-slogan" d="M71.0437 41.7946L71.8288 43.0572H71.2811L70.1965 41.7946H71.0437Z" fill="#5B5B5C"/>
    <path class="logo-slogan" d="M75.938 42.6774C75.536 42.6747 75.2122 42.3456 75.2176 41.9436C75.2203 41.5416 75.5495 41.2178 75.9515 41.2232C76.3535 41.2259 76.6772 41.5551 76.6718 41.9571C76.6691 42.3537 76.3481 42.6747 75.9515 42.6774H75.938ZM75.3984 43.8052H76.5099V49.927H75.3984V43.8052Z" fill="#5B5B5C"/>
    <path class="logo-slogan" d="M97.592 50.0966C97.2116 50.0993 96.9013 49.7945 96.8986 49.414C96.8986 49.4032 96.8986 49.3898 96.8986 49.379C96.8905 48.9958 97.1954 48.6775 97.5812 48.6694C97.5947 48.6694 97.6055 48.6694 97.619 48.6694C97.9967 48.6559 98.3151 48.9527 98.3258 49.3331C98.3258 49.3493 98.3258 49.3655 98.3258 49.379C98.3393 49.7621 98.0372 50.0858 97.6513 50.0966C97.6352 50.0966 97.619 50.0966 97.6055 50.0966" fill="#5B5B5C"/>
    <path class="logo-slogan" d="M82.1594 40.9474H81.0479V49.9264H82.1594V40.9474Z" fill="#5B5B5C"/>
    <path class="logo-slogan" d="M88.3195 48.4586C88.3141 48.9497 88.3438 49.4407 88.4112 49.9263H87.4156L87.3158 49.152H87.278C86.841 49.7429 86.1422 50.0855 85.4056 50.0666C84.1645 50.0666 83.5332 49.1925 83.5332 48.3075C83.5332 46.829 84.8498 46.0196 87.216 46.0277V45.9036C87.216 45.3964 87.073 44.4737 85.8211 44.4872C85.2545 44.4818 84.6961 44.6383 84.2158 44.9404L83.9622 44.1985C84.5773 43.8396 85.2761 43.6535 85.9884 43.6589C87.877 43.6589 88.3249 44.935 88.3249 46.1626V48.4532M87.2457 46.794C86.0316 46.7697 84.6529 46.9882 84.6529 48.1726C84.6016 48.7068 84.9955 49.1844 85.5297 49.233C85.5837 49.2384 85.6376 49.2384 85.6916 49.2357C86.3607 49.2572 86.9705 48.8444 87.1971 48.2131C87.2322 48.0998 87.2484 47.9784 87.2457 47.8597V46.794ZM86.3364 41.7946L87.1836 43.0572H86.6062L86.0882 42.2208L85.5675 43.0572H84.9874L85.8211 41.7946H86.3364Z" fill="#5B5B5C"/>
    <path class="logo-slogan" d="M95.2392 48.2589C95.2392 48.8902 95.2392 49.4433 95.2904 49.9262H94.303L94.2382 48.928H94.2112C93.7958 49.6483 93.0187 50.0827 92.1877 50.0665C91.2299 50.0665 90.0752 49.5269 90.0752 47.3685V43.8044H91.1922V47.1796C91.1922 48.3425 91.5564 49.1411 92.5574 49.1411C93.2103 49.1303 93.7904 48.7256 94.0224 48.1159C94.0952 47.9351 94.1303 47.7435 94.1276 47.5493V43.8044H95.2392V48.2589Z" fill="#5B5B5C"/>
</svg>

